<?xml version="1.0" standalone="no"?>
<!DOCTYPE svg PUBLIC "-//W3C//DTD SVG 20010904//EN"
 "http://www.w3.org/TR/2001/REC-SVG-20010904/DTD/svg10.dtd">
<svg version="1.0" xmlns="http://www.w3.org/2000/svg"
 width="960.000000pt" height="960.000000pt" viewBox="0 0 960.000000 960.000000"
 preserveAspectRatio="xMidYMid meet">
<metadata>
Created by potrace 1.11, written by Peter Selinger 2001-2013
</metadata>
<g transform="translate(0.000000,960.000000) scale(0.100000,-0.100000)"
fill="#000000" stroke="none">
<path d="M4740 8778 c-96 -5 -176 -11 -179 -13 -5 -5 69 -1617 75 -1624 4 -5
446 18 451 23 3 2 -13 369 -34 815 l-38 811 -50 -1 c-27 -1 -129 -6 -225 -11z"/>
<path d="M5605 8728 c-7 -19 -345 -1561 -345 -1574 0 -9 440 -109 445 -102 3
6 345 1573 345 1583 0 6 -91 30 -202 53 -112 24 -211 46 -221 48 -9 3 -19 -1
-22 -8z"/>
<path d="M3746 8594 c-110 -35 -202 -66 -204 -69 -4 -4 483 -1539 492 -1552 3
-3 421 129 428 136 13 11 -486 1546 -502 1548 -8 1 -105 -27 -214 -63z"/>
<path d="M6584 8388 c-15 -29 -169 -327 -344 -663 -175 -335 -331 -638 -349
-672 l-31 -62 201 -101 c111 -56 205 -98 209 -93 11 11 751 1436 748 1439 -7
6 -396 204 -401 204 -4 0 -19 -24 -33 -52z"/>
<path d="M2802 8152 c-101 -64 -183 -121 -183 -127 2 -21 876 -1365 886 -1363
24 6 375 234 374 243 -1 16 -873 1358 -884 1361 -5 2 -93 -50 -193 -114z"/>
<path d="M6960 7301 c-300 -327 -546 -600 -548 -606 -3 -12 312 -300 328 -300
6 0 258 269 560 598 l548 599 -157 141 c-86 78 -163 147 -171 153 -12 9 -113
-96 -560 -585z"/>
<path d="M2003 7482 c-83 -92 -149 -170 -147 -174 3 -5 260 -238 572 -520 312
-281 583 -526 602 -544 l35 -33 150 166 c83 91 150 168 150 173 0 6 -1118
1021 -1195 1085 -13 11 -38 -13 -167 -153z"/>
<path d="M7555 6709 c-390 -219 -711 -401 -712 -406 -4 -14 214 -388 225 -386
13 3 1404 782 1415 792 5 5 -202 386 -216 397 -1 1 -321 -178 -712 -397z"/>
<path d="M1402 6621 l-102 -199 724 -371 c398 -204 728 -371 733 -371 4 0 54
90 111 200 91 178 100 200 85 208 -1077 552 -1431 732 -1439 732 -5 0 -55 -90
-112 -199z"/>
<path d="M1095 5857 c-8 -26 -95 -431 -92 -433 6 -6 1597 -347 1601 -343 9 9
97 431 92 437 -4 3 -356 81 -784 174 -427 92 -785 169 -795 172 -10 2 -20 -1
-22 -7z"/>
<path d="M1705 4872 c-412 -19 -751 -36 -753 -37 -4 -3 18 -448 22 -452 4 -4
1568 68 1605 73 l34 5 -7 182 c-4 100 -9 201 -12 225 l-6 42 -67 -1 c-36 -1
-403 -17 -816 -37z"/>
<path d="M1853 4046 c-419 -133 -765 -245 -768 -248 -8 -8 126 -428 137 -428
11 0 1549 488 1555 493 2 3 -26 100 -64 216 -49 154 -72 211 -83 210 -8 0
-358 -109 -777 -243z"/>
<path d="M7082 3711 l-102 -199 192 -100 c496 -255 1258 -644 1264 -644 4 0
54 91 111 201 l104 200 -73 37 c-40 20 -366 187 -725 370 -358 184 -655 334
-660 334 -5 0 -55 -90 -111 -199z"/>
<path d="M2170 3279 c-371 -236 -681 -434 -688 -438 -10 -6 17 -55 108 -197
67 -104 123 -190 125 -192 3 -3 1364 863 1377 876 6 7 -231 382 -242 382 -3 0
-309 -194 -680 -431z"/>
<path d="M6735 3215 c-83 -91 -150 -170 -150 -175 0 -11 1192 -1090 1204
-1090 5 0 59 55 122 123 62 67 130 141 152 163 l39 41 -569 513 c-312 282
-586 530 -608 551 l-41 39 -149 -165z"/>
<path d="M2651 2599 c-304 -331 -548 -605 -544 -609 4 -3 78 -70 165 -148 86
-78 160 -142 166 -142 10 0 1102 1188 1102 1199 0 8 -316 294 -329 299 -5 2
-257 -268 -560 -599z"/>
<path d="M6252 2812 c-100 -64 -181 -123 -180 -130 4 -18 872 -1361 880 -1362
4 0 93 54 197 121 l189 121 -250 386 c-138 213 -337 521 -442 684 -105 164
-195 297 -201 297 -5 0 -92 -53 -193 -117z"/>
<path d="M3647 2738 c-19 -35 -189 -359 -377 -722 -262 -505 -339 -661 -328
-667 41 -26 390 -200 394 -197 2 3 135 256 295 564 160 307 328 631 374 720
l85 161 -199 101 c-109 56 -201 102 -204 102 -3 0 -21 -28 -40 -62z"/>
<path d="M5698 2551 c-114 -36 -210 -69 -213 -72 -5 -6 481 -1536 492 -1548 3
-4 423 126 431 133 5 5 0 21 -258 821 -127 396 -234 723 -238 726 -4 3 -100
-24 -214 -60z"/>
<path d="M4240 2532 c0 -5 -76 -357 -170 -782 -93 -426 -170 -781 -170 -790 0
-12 45 -25 218 -62 119 -26 220 -44 223 -40 7 9 352 1583 347 1586 -4 3 -431
96 -441 96 -4 0 -7 -4 -7 -8z"/>
<path d="M5016 2439 c-82 -5 -151 -10 -154 -13 -4 -5 68 -1618 73 -1624 3 -4
449 19 453 23 2 2 -14 368 -34 814 l-38 811 -76 -1 c-41 -1 -142 -6 -224 -10z"/>
</g>
</svg>
